<?xml version="1.0" encoding="UTF-8"?>
<svg xmlns="http://www.w3.org/2000/svg" xmlns:xlink="http://www.w3.org/1999/xlink" width="29px" height="20px" viewBox="0 0 29 20" version="1.1">
<g id="surface1">
<path style=" stroke:none;fill-rule:evenodd;fill:rgb(0%,0%,0%);fill-opacity:1;" d="M 28.101562 6.246094 L 28.167969 6.246094 C 28.207031 6.246094 28.226562 6.214844 28.226562 6.15625 C 28.226562 6.125 28.21875 6.105469 28.210938 6.089844 C 28.199219 6.078125 28.1875 6.070312 28.167969 6.070312 L 28.101562 6.070312 Z M 28.050781 5.996094 L 28.167969 5.996094 C 28.203125 5.996094 28.230469 6.011719 28.25 6.039062 C 28.265625 6.066406 28.277344 6.105469 28.277344 6.15625 C 28.277344 6.191406 28.269531 6.222656 28.257812 6.25 C 28.25 6.277344 28.230469 6.292969 28.210938 6.304688 L 28.285156 6.503906 L 28.226562 6.503906 L 28.160156 6.316406 L 28.101562 6.316406 L 28.101562 6.503906 L 28.050781 6.503906 Z M 28.152344 6.65625 C 28.222656 6.65625 28.277344 6.617188 28.316406 6.546875 C 28.359375 6.472656 28.378906 6.378906 28.378906 6.257812 C 28.378906 6.136719 28.359375 6.039062 28.316406 5.964844 C 28.277344 5.894531 28.222656 5.859375 28.152344 5.859375 C 28.082031 5.859375 28.027344 5.894531 27.988281 5.964844 C 27.949219 6.039062 27.925781 6.136719 27.925781 6.257812 C 27.925781 6.378906 27.949219 6.472656 27.988281 6.546875 C 28.027344 6.617188 28.082031 6.65625 28.152344 6.65625 Z M 28.152344 6.730469 C 28.097656 6.730469 28.050781 6.707031 28.007812 6.664062 C 27.964844 6.625 27.933594 6.566406 27.910156 6.496094 C 27.890625 6.425781 27.878906 6.34375 27.878906 6.257812 C 27.878906 6.160156 27.890625 6.078125 27.914062 6.007812 C 27.9375 5.933594 27.972656 5.878906 28.015625 5.84375 C 28.054688 5.804688 28.101562 5.785156 28.152344 5.785156 C 28.207031 5.785156 28.257812 5.804688 28.296875 5.847656 C 28.339844 5.890625 28.371094 5.945312 28.394531 6.015625 C 28.417969 6.089844 28.429688 6.167969 28.429688 6.257812 C 28.429688 6.351562 28.417969 6.433594 28.390625 6.503906 C 28.367188 6.578125 28.332031 6.632812 28.292969 6.671875 C 28.25 6.710938 28.203125 6.730469 28.152344 6.730469 Z M 17.84375 14.246094 C 17.925781 14.246094 17.984375 14.148438 17.984375 14.007812 L 17.984375 6.988281 L 19.398438 6.988281 C 19.484375 6.988281 19.542969 6.890625 19.542969 6.75 L 19.542969 5.78125 C 19.542969 5.640625 19.484375 5.542969 19.398438 5.542969 L 15.632812 5.542969 C 15.546875 5.542969 15.492188 5.640625 15.492188 5.78125 L 15.492188 6.75 C 15.492188 6.890625 15.546875 6.988281 15.632812 6.988281 L 17.046875 6.988281 L 17.046875 14.007812 C 17.046875 14.148438 17.105469 14.246094 17.191406 14.246094 Z M 24.289062 13.941406 C 24.375 14.09375 24.324219 14.246094 24.21875 14.246094 L 23.398438 14.246094 C 23.289062 14.246094 23.230469 14.203125 23.160156 14.0625 L 22.667969 13.148438 C 22.339844 13.886719 21.878906 14.441406 21.117188 14.441406 C 20.175781 14.441406 19.429688 13.484375 19.429688 11.84375 C 19.429688 10.578125 19.832031 9.90625 20.441406 9.339844 C 20.140625 8.761719 20.007812 8.152344 20.007812 7.621094 C 20.007812 6.273438 20.570312 5.347656 21.414062 5.347656 C 22.28125 5.347656 22.8125 6.207031 22.8125 7.480469 C 22.8125 8.566406 22.347656 9.175781 21.855469 9.632812 L 22.578125 10.949219 L 22.984375 9.753906 C 23.039062 9.613281 23.09375 9.558594 23.199219 9.558594 L 23.824219 9.558594 C 23.929688 9.558594 23.988281 9.675781 23.921875 9.863281 L 23.199219 11.949219 Z M 21.429688 6.695312 C 21.09375 6.695312 20.898438 7.054688 20.898438 7.535156 C 20.898438 7.902344 21.015625 8.230469 21.28125 8.707031 C 21.738281 8.261719 21.933594 7.992188 21.933594 7.511719 C 21.933594 7.066406 21.765625 6.695312 21.429688 6.695312 Z M 21.136719 13.070312 C 21.550781 13.070312 21.828125 12.734375 22.054688 12.15625 L 21.007812 10.265625 C 20.609375 10.644531 20.347656 11.027344 20.347656 11.789062 C 20.347656 12.539062 20.710938 13.070312 21.136719 13.070312 Z M 16.117188 13.964844 C 16.152344 14.105469 16.097656 14.246094 16.007812 14.246094 L 15.335938 14.246094 C 15.238281 14.246094 15.179688 14.171875 15.148438 14.015625 L 14.769531 12.167969 L 12.679688 12.167969 L 12.300781 14.015625 C 12.265625 14.171875 12.210938 14.246094 12.113281 14.246094 L 11.480469 14.246094 C 11.394531 14.246094 11.335938 14.105469 11.371094 13.964844 L 13.121094 5.761719 C 13.152344 5.609375 13.210938 5.542969 13.308594 5.542969 L 14.171875 5.542969 C 14.269531 5.542969 14.335938 5.609375 14.367188 5.761719 Z M 14.46875 10.742188 L 13.726562 7.152344 L 12.976562 10.742188 Z M 25.3125 14.246094 C 25.226562 14.246094 25.167969 14.148438 25.167969 14.007812 L 25.167969 6.988281 L 23.753906 6.988281 C 23.671875 6.988281 23.613281 6.890625 23.613281 6.75 L 23.613281 5.78125 C 23.613281 5.640625 23.671875 5.542969 23.753906 5.542969 L 27.523438 5.542969 C 27.605469 5.542969 27.664062 5.640625 27.664062 5.78125 L 27.664062 6.75 C 27.664062 6.890625 27.605469 6.988281 27.523438 6.988281 L 26.105469 6.988281 L 26.105469 14.007812 C 26.105469 14.148438 26.046875 14.246094 25.964844 14.246094 Z M 25.3125 14.246094 "/>
<path style=" stroke:none;fill-rule:evenodd;fill:rgb(0%,65.490196%,84.705882%);fill-opacity:1;" d="M 7.363281 3.382812 C 6.6875 2.703125 5.902344 2.316406 5.058594 2.316406 C 4.207031 2.316406 3.402344 2.71875 2.722656 3.417969 C 2.519531 3.625 2.40625 3.796875 2.40625 4.011719 C 2.40625 4.652344 3.292969 5.339844 4.867188 5.339844 C 6.425781 5.339844 7.632812 4.585938 7.632812 3.859375 C 7.632812 3.6875 7.542969 3.566406 7.363281 3.382812 M 8.03125 4.226562 C 8.050781 4.277344 8.058594 4.328125 8.058594 4.402344 C 8.058594 5.242188 6.53125 6.734375 4.09375 6.734375 C 2.304688 6.734375 1.96875 5.613281 1.96875 4.902344 C 1.96875 4.648438 2.027344 4.390625 2.15625 4.125 C 2.160156 4.109375 2.15625 4.101562 2.148438 4.113281 C 1.914062 4.445312 1.703125 4.820312 1.515625 5.222656 C 1.425781 5.414062 1.367188 5.582031 1.367188 5.683594 C 1.367188 7.15625 3.5625 8.226562 5.613281 8.226562 C 7.800781 8.226562 8.777344 7.023438 8.777344 5.96875 C 8.777344 5.589844 8.6875 5.371094 8.464844 4.945312 C 8.320312 4.664062 8.183594 4.4375 8.039062 4.214844 C 8.03125 4.207031 8.027344 4.214844 8.03125 4.226562 M 0.992188 6.644531 C 0.859375 7.085938 0.714844 7.828125 0.667969 8.214844 C 0.652344 8.378906 0.660156 8.457031 0.691406 8.582031 C 0.96875 9.570312 2.367188 11.148438 5.625 11.148438 C 7.613281 11.148438 9.15625 10.324219 9.40625 8.824219 C 9.453125 8.546875 9.453125 8.257812 9.394531 7.863281 C 9.328125 7.425781 9.207031 6.910156 9.101562 6.550781 C 9.097656 6.539062 9.089844 6.542969 9.09375 6.554688 C 9.132812 8.523438 5.871094 9.792969 4.226562 9.792969 C 2.445312 9.792969 0.960938 8.597656 0.960938 7.089844 C 0.960938 6.945312 0.976562 6.796875 1 6.648438 C 1 6.632812 0.996094 6.632812 0.992188 6.644531 M 4.152344 12.933594 C 1.851562 12.933594 0.761719 11.125 0.566406 9.894531 C 0.5625 9.875 0.558594 9.878906 0.558594 9.894531 C 0.558594 10.308594 0.582031 10.847656 0.625 11.203125 C 0.644531 11.375 0.726562 11.648438 0.851562 11.863281 C 1.410156 12.84375 2.800781 14.214844 5.207031 14.214844 C 8.492188 14.214844 9.242188 12.375 9.394531 11.769531 C 9.503906 11.335938 9.5625 10.550781 9.5625 9.894531 C 9.5625 9.734375 9.558594 9.609375 9.554688 9.484375 C 9.554688 9.464844 9.546875 9.460938 9.546875 9.480469 C 9.382812 10.964844 6.578125 12.933594 4.152344 12.933594 M 5.363281 16.269531 C 6.472656 16.269531 7.691406 15.761719 8.417969 14.753906 C 8.617188 14.480469 8.808594 14.113281 8.976562 13.621094 C 9.074219 13.339844 9.171875 13.003906 9.246094 12.675781 C 9.25 12.660156 9.246094 12.652344 9.238281 12.667969 C 8.5625 14.347656 6.601562 15.394531 4.578125 15.394531 C 3.144531 15.394531 1.605469 14.625 1.003906 13.152344 C 0.996094 13.136719 0.992188 13.144531 0.996094 13.160156 C 1.554688 15.167969 3.261719 16.269531 5.363281 16.269531 M 2.296875 15.878906 C 3.0625 16.875 4.019531 17.472656 5.058594 17.472656 C 6.195312 17.472656 7.234375 16.761719 8.023438 15.59375 C 8.035156 15.582031 8.03125 15.570312 8.019531 15.582031 C 7.664062 15.980469 6.652344 16.851562 5.058594 16.851562 C 3.675781 16.851562 2.796875 16.332031 2.304688 15.867188 C 2.292969 15.859375 2.292969 15.871094 2.296875 15.878906 "/>
</g>
</svg>
