<?xml version="1.0" encoding="UTF-8"?>
<svg xmlns="http://www.w3.org/2000/svg" xmlns:xlink="http://www.w3.org/1999/xlink" width="29px" height="20px" viewBox="0 0 29 20" version="1.1">
<g id="surface1">
<path style=" stroke:none;fill-rule:evenodd;fill:rgb(94.117647%,66.27451%,16.078431%);fill-opacity:1;" d="M 0.00390625 1.347656 C 0.00390625 0.605469 0.410156 -0.00390625 0.90625 -0.00390625 L 28.09375 -0.00390625 C 28.589844 -0.00390625 28.996094 0.605469 28.996094 1.347656 L 28.996094 18.644531 C 28.996094 19.386719 28.589844 19.996094 28.09375 19.996094 L 0.90625 19.996094 C 0.410156 19.996094 0.00390625 19.386719 0.00390625 18.644531 Z M 0.00390625 1.347656 "/>
<path style=" stroke:none;fill-rule:evenodd;fill:rgb(100%,100%,100%);fill-opacity:1;" d="M 0.00390625 1.960938 L 28.996094 1.960938 L 28.996094 18.03125 L 0.00390625 18.03125 Z M 0.00390625 1.960938 "/>
<path style=" stroke:none;fill-rule:evenodd;fill:rgb(88.627451%,10.980392%,16.470588%);fill-opacity:1;" d="M 24.574219 6.132812 C 23.246094 6.132812 22.164062 7.753906 22.164062 9.738281 C 22.164062 11.722656 23.246094 13.339844 24.574219 13.339844 C 25.898438 13.339844 26.980469 11.722656 26.980469 9.738281 C 26.980469 7.753906 25.898438 6.132812 24.574219 6.132812 Z M 24.574219 6.132812 "/>
<path style=" stroke:none;fill-rule:evenodd;fill:rgb(88.627451%,10.980392%,16.470588%);fill-opacity:1;" d="M 4.730469 6.132812 C 3.402344 6.132812 2.320312 7.753906 2.320312 9.738281 C 2.320312 11.722656 3.402344 13.339844 4.730469 13.339844 C 6.054688 13.339844 7.136719 11.722656 7.136719 9.738281 C 7.136719 7.753906 6.054688 6.132812 4.730469 6.132812 Z M 4.730469 6.132812 "/>
<path style=" stroke:none;fill-rule:evenodd;fill:rgb(88.627451%,10.980392%,16.470588%);fill-opacity:1;" d="M 24.382812 2.960938 C 22.15625 2.886719 21.109375 5.023438 19.585938 7.664062 L 18.152344 10.152344 L 20.425781 14.222656 C 20.964844 15.472656 19.933594 16.714844 19.292969 15.570312 L 17.191406 11.820312 L 15.144531 15.371094 C 14.492188 16.5 13.472656 15.238281 14.023438 14 L 16.246094 10.132812 L 14.789062 7.535156 L 15.726562 5.796875 L 17.207031 8.460938 L 18.484375 6.238281 C 19.109375 5.148438 19.746094 3.703125 20.574219 2.960938 L 0.00390625 2.960938 L 0.00390625 17.03125 L 4.816406 17.03125 C 7.042969 17.03125 8.054688 15.035156 9.535156 12.34375 L 10.929688 9.808594 L 8.597656 5.816406 C 8.035156 4.585938 9.050781 3.308594 9.707031 4.429688 L 11.867188 8.105469 L 13.859375 4.484375 C 14.492188 3.332031 15.53125 4.558594 15 5.816406 L 12.835938 9.761719 L 14.332031 12.308594 L 13.390625 13.980469 L 11.902344 11.46875 L 10.660156 13.730469 C 10.050781 14.84375 9.433594 16.257812 8.617188 17.03125 L 28.996094 17.03125 L 28.996094 2.960938 Z M 8.53125 9.738281 C 8.53125 12.875 6.824219 15.429688 4.730469 15.429688 C 2.632812 15.429688 0.925781 12.875 0.925781 9.738281 C 0.925781 6.601562 2.632812 4.042969 4.730469 4.042969 C 6.824219 4.042969 8.53125 6.601562 8.53125 9.738281 Z M 24.574219 15.429688 C 22.476562 15.429688 20.769531 12.875 20.769531 9.738281 C 20.769531 6.601562 22.476562 4.042969 24.574219 4.042969 C 26.667969 4.042969 28.375 6.601562 28.375 9.738281 C 28.375 12.875 26.667969 15.429688 24.574219 15.429688 Z M 24.574219 15.429688 "/>
</g>
</svg>
